<?xml version="1.0" encoding="utf-8"?>
<!-- Generator: Adobe Illustrator 19.0.0, SVG Export Plug-In . SVG Version: 6.00 Build 0)  -->
<svg version="1.1" id="Layer_1" xmlns="http://www.w3.org/2000/svg" xmlns:xlink="http://www.w3.org/1999/xlink" x="0px" y="0px"
	 viewBox="0 0 163.6 85.1" style="enable-background:new 0 0 163.6 85.1;" xml:space="preserve">
<style type="text/css">
	.st0{clip-path:url(#XMLID_35_);fill:#FF9400;}
	.st1{display:none;clip-path:url(#XMLID_35_);}
	.st2{display:inline;}
	.st3{clip-path:url(#XMLID_36_);fill:url(#Path_2_1_);}
	.st4{clip-path:url(#XMLID_37_);fill:url(#Path_1_1_);}
</style>
<g id="XMLID_2_">
	<defs>
		<rect id="XMLID_1_" x="0" width="955.6" height="560"/>
	</defs>
	<clipPath id="XMLID_35_">
		<use xlink:href="#XMLID_1_"  style="overflow:visible;"/>
	</clipPath>
	<path id="Path_651" class="st0" d="M170.4-25.5c0,0-45.7,72.6-86.8,96s-85-2.1-106-32.9s7.3-90.5,7.3-90.5L170.4-25.5z"/>
	<g id="XMLID_15_" class="st1">
		<g id="XMLID_5_" class="st2">
			<defs>
				<rect id="XMLID_6_" x="390.5" y="0" width="571.5" height="565.1"/>
			</defs>
			<clipPath id="XMLID_36_">
				<use xlink:href="#XMLID_6_"  style="overflow:visible;"/>
			</clipPath>
			
				<linearGradient id="Path_2_1_" gradientUnits="userSpaceOnUse" x1="-328.8253" y1="-314.3513" x2="-328.734" y2="-314.4015" gradientTransform="matrix(-1397.0748 171.5392 -188.6851 -1536.7169 -517949.4063 -426390.3438)">
				<stop  offset="0" style="stop-color:#FFF457"/>
				<stop  offset="1" style="stop-color:#FFDC2C"/>
			</linearGradient>
			<path id="Path_2" class="st3" d="M422.9-17.1c7.4,21.4,18.1,31.9,28.2,73.9s-16.3,72.3,12.1,94.1c49.8,38.1,88,6.9,129,48.4
				s-4.9,74.3,19.4,125.9s130.9,48,209.1,101.2s31.4,73.8,95.4,116.9s78.9-13.1,147.8,34.9c68.9,48-12.2-568.5-12.2-568.5
				S405.7-66.9,422.9-17.1z"/>
		</g>
		<g id="XMLID_3_" class="st2">
			<defs>
				<rect id="XMLID_4_" x="390.5" y="0" width="571.5" height="565.1"/>
			</defs>
			<clipPath id="XMLID_37_">
				<use xlink:href="#XMLID_4_"  style="overflow:visible;"/>
			</clipPath>
			
				<linearGradient id="Path_1_1_" gradientUnits="userSpaceOnUse" x1="-328.818" y1="-314.3223" x2="-329.0934" y2="-314.186" gradientTransform="matrix(-1251.7955 358.9466 -457.4505 -1595.3195 -554676.375 -383116.7188)">
				<stop  offset="0" style="stop-color:#FF9400"/>
				<stop  offset="1" style="stop-color:#FFAA00"/>
			</linearGradient>
			<path id="Path_1" class="st4" d="M470.7-15c48.3,69.6,5.1,116.3,39.9,141.4s70.7,4.1,115.7,37.3s45.1,107.7,75.8,152.9
				c30.7,45.2,94.9,31.9,140.1,57.8c45.2,26,33.1,95.8,88.9,114.9s43.6,3.5,121.3,37.7s-10.6-514.3-10.6-514.3S422.4-84.7,470.7-15z
				"/>
		</g>
	</g>
</g>
</svg>
