<?xml version="1.0" encoding="utf-8"?>
<!-- Generator: Adobe Illustrator 19.0.0, SVG Export Plug-In . SVG Version: 6.00 Build 0)  -->
<svg version="1.1" id="Layer_1" xmlns="http://www.w3.org/2000/svg" xmlns:xlink="http://www.w3.org/1999/xlink" x="0px" y="0px"
	 viewBox="0 0 41.9 87.8" style="enable-background:new 0 0 41.9 87.8;" xml:space="preserve">
<style type="text/css">
	.st0{display:none;}
	.st1{display:inline;}
	.st2{clip-path:url(#XMLID_105_);fill:url(#Path_2_1_);}
	.st3{clip-path:url(#XMLID_106_);fill:url(#Path_1_1_);}
	.st4{clip-path:url(#XMLID_107_);fill:#FF9400;}
	.st5{clip-path:url(#XMLID_108_);fill:#FFFF00;}
</style>
<g id="XMLID_15_" class="st0">
	<g id="XMLID_6_" class="st1">
		<g id="XMLID_7_">
			<defs>
				<rect id="XMLID_8_" x="388.4" y="-421.8" width="571.5" height="565.1"/>
			</defs>
			<clipPath id="XMLID_105_">
				<use xlink:href="#XMLID_8_"  style="overflow:visible;"/>
			</clipPath>
			
				<linearGradient id="Path_2_1_" gradientUnits="userSpaceOnUse" x1="-717.0972" y1="452.8423" x2="-717.006" y2="452.8925" gradientTransform="matrix(-1397.0748 171.5392 188.6851 1536.7169 -1086527.75 -573029.6875)">
				<stop  offset="0" style="stop-color:#FFF457"/>
				<stop  offset="1" style="stop-color:#FFDC2C"/>
			</linearGradient>
			<path id="Path_2" class="st2" d="M420.8-438.9c7.4,21.4,18.1,31.9,28.2,73.9c10.1,42-16.3,72.3,12.1,94.1
				c49.8,38.1,88,6.9,129,48.4s-4.9,74.3,19.4,125.9s130.9,48,209.1,101.2S850,78.4,914,121.5s78.9-13.1,147.8,34.9
				s-12.2-568.5-12.2-568.5S403.6-488.7,420.8-438.9z"/>
		</g>
	</g>
	<g id="XMLID_3_" class="st1">
		<g id="XMLID_4_">
			<defs>
				<rect id="XMLID_5_" x="388.4" y="-421.8" width="571.5" height="565.1"/>
			</defs>
			<clipPath id="XMLID_106_">
				<use xlink:href="#XMLID_5_"  style="overflow:visible;"/>
			</clipPath>
			
				<linearGradient id="Path_1_1_" gradientUnits="userSpaceOnUse" x1="-717.1025" y1="452.8468" x2="-717.3779" y2="452.7105" gradientTransform="matrix(-1251.7955 358.9466 457.4505 1595.3195 -1104099.375 -465156.0625)">
				<stop  offset="0" style="stop-color:#FF9400"/>
				<stop  offset="1" style="stop-color:#FFAA00"/>
			</linearGradient>
			<path id="Path_1" class="st3" d="M468.6-436.8c48.3,69.6,5.1,116.3,39.9,141.4c34.8,25.1,70.7,4.1,115.7,37.3
				s45.1,107.7,75.8,152.9s94.9,31.9,140.1,57.8c45.2,26,33.1,95.8,88.9,114.9s43.6,3.5,121.3,37.7c77.7,34.2-10.6-514.3-10.6-514.3
				S420.3-506.5,468.6-436.8z"/>
		</g>
	</g>
</g>
<g id="XMLID_2_" class="st0">
	<g id="XMLID_9_" class="st1">
		<defs>
			<rect id="XMLID_10_" x="0.9" y="-422.5" width="955.6" height="560"/>
		</defs>
		<clipPath id="XMLID_107_">
			<use xlink:href="#XMLID_10_"  style="overflow:visible;"/>
		</clipPath>
		<path id="Path_651" class="st4" d="M171.3-448c0,0-45.7,72.6-86.8,96c-41.1,23.4-85-2.1-106-32.9s7.3-90.5,7.3-90.5L171.3-448z"/>
	</g>
</g>
<g id="XMLID_11_">
	<defs>
		<rect id="XMLID_1_" x="1" y="-29.1" width="48.7" height="142.6"/>
	</defs>
	<clipPath id="XMLID_108_">
		<use xlink:href="#XMLID_1_"  style="overflow:visible;"/>
	</clipPath>
	<path id="Path_652" class="st5" d="M27.8,6.5c15.2,8.7,16.8,32.7,4.8,53.4s-34,30.5-49.1,21.7S-34.2,49-22.2,28.2
		S12.7-2.3,27.8,6.5z"/>
</g>
</svg>
