<?xml version="1.0" encoding="utf-8"?>
<!-- Generator: Adobe Illustrator 19.0.0, SVG Export Plug-In . SVG Version: 6.00 Build 0)  -->
<svg version="1.1" id="Layer_1" xmlns="http://www.w3.org/2000/svg" xmlns:xlink="http://www.w3.org/1999/xlink" x="0px" y="0px"
	 viewBox="0 0 960 813" style="enable-background:new 0 0 960 813;" xml:space="preserve">
<style type="text/css">
	.st0{fill:#FF9400;}
</style>
<path id="Path_655" class="st0" d="M-98.1-39.1c0,0,125.7,10.9,161.7,75.9s7.4,108.4,61.8,172.2c35.1,41.3,125.8,49.4,222.3,59.5
	c96.6,10.1,70.8,128.1,34.1,176.7c-44.4,47.3-84.9,66.6-90.2,133.2c-2.3,29,50.5,25.2,67.4,73s16.7,77.8,0,118.1
	c-17.5,20.1-31.4,57.6-140.4,37.9c-67.7-12.2-143.1-40.6-196.7-44s-80.2,9.9-120.9,32c-123.5,12.4-27.9-242.6-57.8-306.6
	C-255.9,276.8-98.1-39.1-98.1-39.1z"/>
</svg>
