<?xml version="1.0" encoding="utf-8"?>
<!-- Generator: Adobe Illustrator 19.0.0, SVG Export Plug-In . SVG Version: 6.00 Build 0)  -->
<svg version="1.1" id="Layer_1" xmlns="http://www.w3.org/2000/svg" xmlns:xlink="http://www.w3.org/1999/xlink" x="0px" y="0px"
	 viewBox="160 -167 492 810" style="enable-background:new 160 -167 492 810;" xml:space="preserve">
<style type="text/css">
	.st0{fill:#FF9400;}
</style>
<path id="Path_655" class="st0" d="M138.9-169c0,0,119.7,10.4,154,72.3S300,6.5,351.7,67.2c33.5,39.3,119.9,47,211.7,56.7
	c92,9.6,67.4,122,32.5,168.2c-42.2,45.1-80.8,63.4-85.8,126.8c-2.2,27.6,48.1,24,64.1,69.5c16.1,45.5,15.9,74.1,0,112.5
	c-16.7,19.2-29.9,54.8-133.7,36c-64.4-11.6-136.2-38.7-187.3-41.9s-76.4,9.4-115.1,30.4c-117.5,11.8-26.5-231-54.9-291.9
	C-11.3,131.8,138.9-169,138.9-169z"/>
</svg>
