<?xml version="1.0" encoding="utf-8"?>
<!-- Generator: Adobe Illustrator 19.0.0, SVG Export Plug-In . SVG Version: 6.00 Build 0)  -->
<svg version="1.1" id="Layer_1" xmlns="http://www.w3.org/2000/svg" xmlns:xlink="http://www.w3.org/1999/xlink" x="0px" y="0px"
	 viewBox="0 0 960 560" style="enable-background:new 0 0 960 560;" xml:space="preserve">
<style type="text/css">
	.st0{fill:#FF9400;}
</style>
<path id="Path_655" class="st0" d="M-48.9-12c0,0,82.6,7.2,106.3,49.9s4.9,71.2,40.6,113.2c23.1,27.1,82.7,32.5,146.1,39.1
	s46.5,84.2,22.4,116.1c-29.2,31.1-55.8,43.8-59.3,87.6c-1.5,19.1,33.2,16.6,44.3,48c11.1,31.4,11,51.1,0,77.6
	c-11.5,13.2-20.7,37.9-92.3,24.9c-44.5-8-94.1-26.7-129.3-29c-35.2-2.3-52.7,6.5-79.5,21c-81.2,8.2-18.3-159.5-38-201.6
	C-152.6,195.7-48.9-12-48.9-12z"/>
</svg>
