<svg xmlns="http://www.w3.org/2000/svg" width="464" height="456" viewBox="0 0 464 456">
  <g id="flat" transform="translate(-24 -24)">
    <path id="Path_1" data-name="Path 1" d="M440,224H422.833a24,24,0,0,1-21.466-13.267L392,192h48Z" fill="#ea9d2d"/>
    <path id="Path_2" data-name="Path 2" d="M440,224h17.167a24,24,0,0,0,21.466-13.267L488,192H440Z" fill="#ea9d2d"/>
    <path id="Path_3" data-name="Path 3" d="M440,160l-10.626,15.938A32,32,0,0,0,424,193.689v1.056a32,32,0,0,0,9.373,22.628L440,224l6.627-6.627A32,32,0,0,0,456,194.745v-1.056a32,32,0,0,0-5.375-17.752Z" fill="#fbb540"/>
    <path id="Path_4" data-name="Path 4" d="M176,392l16-16,8-24H312l8,24,16,16,16,12.8L256,456l-96-48Z" fill="#5d70b3"/>
    <path id="Path_5" data-name="Path 5" d="M252.34,432l-4.03,20.15L160,408l16-16,3.54-3.54Z" fill="#cf5252"/>
    <path id="Path_6" data-name="Path 6" d="M352,404.8l-84.43,45.03L264,432l70.09-41.91L336,392Z" fill="#cf5252"/>
    <path id="Path_7" data-name="Path 7" d="M192,203l-17.19,5.6a36,36,0,0,0-18.826,23.468L136,312,72,352l-24-8-24,8,8,40,119.069-37.209a21.994,21.994,0,0,0,13.115-11.16L192,288Z" fill="#fdc9a6"/>
    <path id="Path_8" data-name="Path 8" d="M320,203l17.19,5.6a36,36,0,0,1,18.826,23.468L376,312l64,40,24-8,24,8-8,40L360.931,354.791a21.994,21.994,0,0,1-13.115-11.16L320,288Z" fill="#fdc9a6"/>
    <path id="Path_9" data-name="Path 9" d="M280,64l-2.789-13.943a32.413,32.413,0,0,0-54.7-16.564A104.154,104.154,0,0,0,192,107.142V109.4a49.7,49.7,0,0,1-22.135,41.357L168,152l6.2,3.1A49.7,49.7,0,0,0,224,152Z" fill="#683b0d"/>
    <path id="Path_10" data-name="Path 10" d="M288,193.6l-8-1.6V160H232v32l-8,1.6V232l32,24,32-24Z" fill="#fdc9a6"/>
    <path id="Path_11" data-name="Path 11" d="M280,160v8a40,40,0,0,1-48,0v-8Z" fill="#fdc9a6"/>
    <path id="Path_12" data-name="Path 12" d="M288,193.6l32,9.4v37a39.448,39.448,0,0,1-2.019,46.524L304,304H208l-13.981-17.476A39.448,39.448,0,0,1,192,240V203l32-9.4V232l32,24,32-24Z" fill="#ff9400"/>
    <path id="Path_13" data-name="Path 13" d="M208,304v13.614a64.009,64.009,0,0,1-3.284,20.239L200,352H312l-4.716-14.147A64.01,64.01,0,0,1,304,317.614V304Z" fill="#fdc9a6"/>
    <path id="Path_14" data-name="Path 14" d="M352,404.8,336,392l-1.91-1.91L264,432H252.34l-72.8-43.54L176,392l-16,16,88.31,40h19.26Z" fill="#4162aa"/>
    <path id="Path_15" data-name="Path 15" d="M280,160v8a40,40,0,0,1-48,0v-8Z" fill="#f6bb92"/>
    <path id="Path_16" data-name="Path 16" d="M72,232H54.833a24,24,0,0,1-21.466-13.267L24,200H72Z" fill="#029532"/>
    <path id="Path_17" data-name="Path 17" d="M72,232H89.167a24,24,0,0,0,21.466-13.267L120,200H72Z" fill="#029532"/>
    <path id="Path_18" data-name="Path 18" d="M272,480l140.021-57.188a30.655,30.655,0,1,0-31.346-52.6L264,440Z" fill="#5d70b3"/>
    <path id="Path_19" data-name="Path 19" d="M244.338,480,104.317,422.812a30.655,30.655,0,1,1,31.346-52.6L252.338,440Z" fill="#5d70b3"/>
    <path id="Path_20" data-name="Path 20" d="M264,440l-40,8-24-8-16,16,8,24h80Z" fill="#fdc9a6"/>
    <path id="Path_21" data-name="Path 21" d="M296,112v16a40,40,0,0,1-80,0V96a39.964,39.964,0,0,1,1.993-12.5Z" fill="#fdc9a6"/>
    <path id="Path_22" data-name="Path 22" d="M296,96v16a120,120,0,0,1-72-24l-6-4.5A40,40,0,0,1,296,96Z" fill="#683b0d"/>
    <path id="Path_23" data-name="Path 23" d="M72,168,61.374,183.938A32,32,0,0,0,56,201.689v1.056a32,32,0,0,0,9.373,22.628L72,232l6.627-6.627A32,32,0,0,0,88,202.745v-1.056a32,32,0,0,0-5.375-17.752Z" fill="#02a437"/>
  </g>
</svg>
