<svg xmlns="http://www.w3.org/2000/svg" xmlns:xlink="http://www.w3.org/1999/xlink" width="660.3" height="442.757" viewBox="0 0 660.3 442.757">
  <defs>
    <linearGradient id="linear-gradient" x1="0.5" y1="1" x2="0.5" gradientUnits="objectBoundingBox">
      <stop offset="0" stop-color="gray" stop-opacity="0.251"/>
      <stop offset="0.54" stop-color="gray" stop-opacity="0.122"/>
      <stop offset="1" stop-color="gray" stop-opacity="0.102"/>
    </linearGradient>
  </defs>
  <g id="undraw_Meditation_o89g" transform="translate(-69.97 -275.601)">
    <path id="Path_659" data-name="Path 659" d="M840.429,704.53H208.162c-7.74,0-14.012,4.59-14.012,10.25v106c0,5.66,6.272,10.25,14.012,10.25H840.429c7.74,0,14.02-4.59,14.02-10.25v-106C854.449,709.12,848.169,704.53,840.429,704.53Z" transform="translate(-124.18 -112.673)" fill="#ffc107"/>
    <path id="Path_660" data-name="Path 660" d="M840.429,704.53H208.162c-7.74,0-14.012,4.59-14.012,10.25v106c0,5.66,6.272,10.25,14.012,10.25H840.429c7.74,0,14.02-4.59,14.02-10.25v-106C854.449,709.12,848.169,704.53,840.429,704.53Z" transform="translate(-124.18 -112.673)" opacity="0.2"/>
    <rect id="Rectangle_94" data-name="Rectangle 94" width="660.27" height="119.12" rx="14.09" transform="translate(70 591.857)" fill="#ffc107"/>
    <path id="Path_808" data-name="Path 808" d="M0,0H660.27V1.27H0Z" transform="translate(70 617.7)" fill="#fff" opacity="0.05"/>
    <rect id="Rectangle_96" data-name="Rectangle 96" width="660.27" height="9.27" transform="translate(70 632.247)" fill="#fff" opacity="0.05"/>
    <rect id="Rectangle_97" data-name="Rectangle 97" width="660.27" height="5.27" transform="translate(70 656.207)" fill="#fff" opacity="0.05"/>
    <rect id="Rectangle_98" data-name="Rectangle 98" width="660.27" height="4.27" transform="translate(70 680.167)" fill="#fff" opacity="0.05"/>
    <path id="Path_670" data-name="Path 670" d="M829.829,648.288l-57.258-33.625s-4.613-14-6.46-23.808-4.624-51.828-4.624-51.828a48.208,48.208,0,0,0,2.6-11.121c.565-.09,1.177-.2,1.706-.315,8.682-1.688,15.824-6.4,19.286-12.714,5.884-11.193-1.718-24.42-11.343-33.292s-21.745-16-28.076-26.994c-7.813-13.542-5.142-29.927-9.131-44.755a11.9,11.9,0,0,0-2.942-5.786c-2.483-2.348-6.354-2.852-9.8-3.788-10.92-2.969-19.11-11.076-25.5-19.543-10.343-13.722-21.051-34.6-42.361-35.785-7.919-.441-16.18,1.6-24.193,1.584-12.414,0-24.711.117-37.019,1.422-4.4.459-8.955,1.089-12.626,3.3-12.6,7.63-6.9,27.776-19.039,35.992-3.612,2.429-8.237,3.311-12.32,4.985-15.391,6.3-22.228,23.1-21.322,38.205.435,7.09,2.353,14.46,7.825,19.633,4.342,4.139,10.508,6.514,14.556,10.887,6.507,7.036,5.625,16.385,4.919,25.887-8.708,2.789-15.7,5.993-17.9,9.439-7.46,11.58-6.5,51.171-6.5,51.171s2.765,64.785-18.486,72.883l-79.451,42.02s-56.364-37.467-70.225-15.4c-9.472,15.089,25.122,23.628,47.95,27.516-14.391,7.81-22.357,22.243-15.615,32.014,10.59,15.413,40.2,25.914,40.2,25.914s112.9,4.166,165.091-4.778h.859c22.157,3.068,53.951,6.3,79.451,4.355.494.9.835,1.476.835,1.476s163.561,10.51,193.108-32.212c15.156-21.919-.659-32.032-19.674-36.693,21.286-1.3,45.526-5.849,48.315-19.7C909.75,619.566,829.829,648.288,829.829,648.288Zm-16.474,13.4c-29.935,8.332-54.222,8.8-67.166,8.179-6.354-10.6-32.853-56.5-33.548-87.225.177-6.856,1.765-12.849,5.354-17.348,7.7-9.691,9.978-17.294,9.72-23.062v-1.26a18.219,18.219,0,0,0-.659-5.246,10.827,10.827,0,0,1,1.083,7.5c-2.765,10.851,4.624,81.242,4.624,81.242s6,15.764,18.474,20.308Zm-293.092-4.994L549,642.682s13.4-4.9,14.791-16.808l9.472-56.894a47.583,47.583,0,0,0,2.53,7.2c1.671,3.734,2.353,9.2,2.495,15.719-.365,31.754-14.5,84.436-14.5,84.436h.165a1.4,1.4,0,0,1-.094.378l-1,.045c-23.24-.54-77.4-2.088-107.715-5.3Zm-50.1,33.157v.108H463.1Z" transform="translate(-194.18 -69.27)" fill="url(#linear-gradient)"/>
    <path id="Path_671" data-name="Path 671" d="M646,391.06c5.24,9.18,12,18,21,21.17,2.83,1,6,1.57,8,4.12a14.74,14.74,0,0,1,2.43,6.27c3.27,16.06,1.08,33.81,7.5,48.5,5.2,11.89,15.15,19.63,23.06,29.22s14.11,23.93,9.32,36.05a23.53,23.53,0,0,1-15.85,13.78c-6.62,1.8-13.53,1.05-20.25-.14-8.86-1.57-17.88-4-25.26-10-12.77-10.38-18.17-29-24.85-45.57-3.14-7.76-7.31-15.89-14.21-18.66-7.9-3.18-16.79,2.13-21.92,9.92s-7.4,17.58-9.89,27c-2.8,10.64-6.34,21.68-13.71,28.64a23.07,23.07,0,0,1-24.64,4.92c-8.2-3.41-14.68-12.06-16.57-22.09-2.9-15.45,4.06-34-4.49-46.22-3.32-4.73-8.39-7.31-11.95-11.79-4.45-5.61-6.07-13.6-6.42-21.27-.75-16.38,4.86-34.63,17.51-41.41,3.38-1.81,7.15-2.76,10.12-5.4,10-8.89,5.28-30.72,15.63-39,3-2.41,6.76-3.08,10.38-3.59,10.14-1.4,20.21-1.56,30.4-1.53,6.59,0,13.38-2.2,19.88-1.72C628.72,353.57,637.51,376.19,646,391.06Z" transform="translate(-214.24 -69.27)" fill="#965d7b"/>
    <path id="Path_672" data-name="Path 672" d="M264.1,652.85l3.83,45.37,267.89-1.6-5.11-49.53-90.57-10.54-158.82,9.59Z" transform="translate(-17.917 -43.403)" fill="#575988"/>
    <path id="Path_673" data-name="Path 673" d="M264.1,652.85l3.83,45.37,267.89-1.6-5.11-49.53-90.57-10.54-158.82,9.59Z" transform="translate(-17.917 -43.403)" opacity="0.05"/>
    <path id="Path_674" data-name="Path 674" d="M634.55,753.82l-89.18,8.35s61.1,15.56,96.77,8Z" transform="translate(-213.47 -112.673)" fill="#f7c4a7"/>
    <path id="Path_675" data-name="Path 675" d="M634.55,753.82l-89.18,8.35s61.1,15.56,96.77,8Z" transform="translate(-213.47 -112.673)" opacity="0.1"/>
    <path id="Path_676" data-name="Path 676" d="M566.62,434.29s17.46,45.92-8.35,66.41-4.55,77.8-4.55,77.8l99.43-4.56s9.86-64.51,4.55-78.17c0,0-23.53,6.83-28.84-7.59s-9.11-53.89-9.11-53.89Z" transform="translate(-213.972 -80.62)" fill="#f7c4a7"/>
    <path id="Path_677" data-name="Path 677" d="M543.85,712.08s-83.87-1.9-108.53-8S389.4,727.26,398.13,744s33,28.08,33,28.08,124.86,6.07,151.8-11c0,0,10.25-29.22,0-34.91H452.77l96-1.9Z" transform="translate(-204.693 -112.673)" fill="#575988"/>
    <path id="Path_678" data-name="Path 678" d="M677.05,703.35s28.09,6.07,66.79-9.11c0,0,72.49-2.27,48.2,44s-158.63,34.92-158.63,34.92-8-17.08,0-21.63,77.42-33.78,99.05-32.26l-60,11.76Z" transform="translate(-222.156 -112.673)" fill="#575988"/>
    <path id="Path_679" data-name="Path 679" d="M623.19,456.38c-1.45-10.81-2.3-19.62-2.3-19.62H567.76a103.5,103.5,0,0,1,5.08,21.48,41.75,41.75,0,0,0,50.35-1.86Z" transform="translate(-213.814 -77.995)" opacity="0.1"/>
    <circle id="Ellipse_80" data-name="Ellipse 80" cx="41.74" cy="41.74" r="41.74" transform="translate(340.234 310.57)" fill="#f7c4a7"/>
    <path id="Path_680" data-name="Path 680" d="M571.17,494.25s-50.09,9.49-56.16,22-5.31,55.41-5.31,55.41,2.27,70.2-15.18,78.93l-65.28,45.54s-46.29-40.6-57.68-16.7,54.65,32.64,54.65,32.64l73.62-22,23.53-15.18s11-5.31,12.14-18.22l9.87-78.17,39.47-11.39h63.75l8.54-24.38s15.75,12.62,13.47,24.38,3.8,88,3.8,88,4.93,17.07,15.18,22l59.2,21.25s62.61,6.07,66.79-21.25S754.09,681,754.09,681L707,644.53s-3.79-15.18-5.31-25.81-3.79-56.16-3.79-56.16,14.42-47.82-27.33-56.16l-53.89-16.7Z" transform="translate(-194.18 -93.1)" fill="#f7c4a7"/>
    <path id="Path_681" data-name="Path 681" d="M537.59,503.93l7.78,51.42s-8,23.91,0,47.44S535.5,714,535.5,714s93.74,30,151-4.56c0,0-42.12-88.8-24.29-118.4s.3-41.18.3-41.18l2.74-54.45-12.9-3.8-7.59,53.89s-52.37,36.43-91.08,4.56l-8.35-58.45Z" transform="translate(-214.403 -94.574)" opacity="0.1"/>
    <path id="Path_682" data-name="Path 682" d="M591.73,565a30.75,30.75,0,0,0-39.8-11.19C564.64,563.36,578.66,565.91,591.73,565Z" transform="translate(-212.397 -88.203)" fill="#fff" opacity="0.07"/>
    <path id="Path_683" data-name="Path 683" d="M613.24,559.35A30.7,30.7,0,0,1,653,548.16C640.32,557.67,626.31,560.21,613.24,559.35Z" transform="translate(-216.276 -87.682)" fill="#fff" opacity="0.07"/>
    <path id="Path_684" data-name="Path 684" d="M537.59,503.93l7.78,48.76s-8,23.91,0,47.44-9.87,111.19-9.87,111.19,93.74,30,151-4.55c0,0-42.12-88.8-24.29-118.4s.3-41.18.3-41.18l2.74-54.46-12.9-3.79-7.59,53.89s-52.37,36.43-91.08,4.55l-8.35-58.44Z" transform="translate(-214.403 -94.113)" opacity="0.1"/>
    <path id="Path_685" data-name="Path 685" d="M537.21,503.55l8.16,49.9s-8,23.91,0,47.44-9.87,111.19-9.87,111.19,93.74,30,151-4.55c0,0-42.12-88.81-24.29-118.41s.3-41.17.3-41.17l2.74-54.46-12.9-3.79-7.59,53.89s-52.37,36.43-91.08,4.55l-8.35-58.44Z" transform="translate(-214.403 -94.244)" fill="#ffb200"/>
    <path id="Path_686" data-name="Path 686" d="M575.73,730.67,595.46,728s22.77-29.22,39.09-6.83c0,0,6.83,14.42,15.18,17.07a112.115,112.115,0,0,0,17.46,3.8l-33.78,9.49s-14.8,8.73-30.36,6.45a58.871,58.871,0,0,0-27.32,2.28Z" transform="translate(-215.387 -112.673)" fill="#f7c4a7"/>
    <path id="Path_687" data-name="Path 687" d="M553.91,606.77s35.67,5.31,41.74-4.17" transform="translate(-212.57 -92.55)" opacity="0.1"/>
    <path id="Path_688" data-name="Path 688" d="M621.46,600.7s6.83,6.83,34.15,1.9" transform="translate(-216.626 -92.284)" opacity="0.1"/>
    <path id="Path_689" data-name="Path 689" d="M552,494.82s26.19,3.8,31.12,1.52" transform="translate(-212.189 -82.719)" opacity="0.1"/>
    <path id="Path_690" data-name="Path 690" d="M609.69,494.82s26.19,3.8,31.12,1.52" transform="translate(-215.799 -82.719)" opacity="0.1"/>
    <path id="Path_691" data-name="Path 691" d="M578.57,727.83s7.22,34,0,35.2-17.45-5.6-17.45-6.36,4.55-22.39,4.55-22.39Z" transform="translate(-212.503 -112.673)" opacity="0.1"/>
    <path id="Path_692" data-name="Path 692" d="M577.82,727.83s7.21,34,0,35.2-17.46-5.6-17.46-6.36,4.55-22.39,4.55-22.39Z" transform="translate(-212.457 -112.673)" fill="#575988"/>
    <path id="Path_693" data-name="Path 693" d="M542.59,489.84c-3.19,7.39-4.32,16.11-.94,23.41,2.58,5.57,7.63,10.08,8.6,16.14,1.22,7.61-4.42,15.33-2.31,22.74.8,2.83,2.67,5.23,4.57,7.48,5.78,6.83,13.46,13.45,22.38,12.92,1.42-13.78-10.5-27.15-6.6-40.44,1.4-4.76,4.68-8.72,6.66-13.26,3.29-7.53,2.82-16.13,1.63-24.26-1.73-11.8-6.11-26.26-17.81-31.78-5.37-2.54-13-2.73-14.91,4.17-1.05,3.68,1.4,7.14,1.73,10.74C546,482.27,544.36,485.74,542.59,489.84Z" transform="translate(-211.571 -82.739)" opacity="0.1"/>
    <path id="Path_694" data-name="Path 694" d="M542.59,488.71c-3.19,7.39-4.32,16.1-.94,23.41,2.58,5.56,7.63,10.08,8.6,16.13,1.22,7.61-4.42,15.33-2.31,22.74.8,2.83,2.67,5.24,4.57,7.49,5.78,6.82,13.46,13.44,22.38,12.91,1.42-13.78-10.5-27.15-6.6-40.44,1.4-4.76,4.68-8.72,6.66-13.26,3.29-7.53,2.82-16.13,1.63-24.26-1.73-11.8-6.11-26.26-17.81-31.78-5.37-2.54-13-2.72-14.91,4.17-1.05,3.68,1.4,7.14,1.73,10.74C546,481.13,544.36,484.6,542.59,488.71Z" transform="translate(-211.571 -82.607)" fill="#965d7b"/>
    <path id="Path_695" data-name="Path 695" d="M545.56,401.09s55.4-7.59,56.92,3.79,50.48,30,50.48,30l-12.15-30-22.39-37.19s-41-3-42.88,0S552,380.59,552,380.59Z" transform="translate(-213.789 -69.27)" opacity="0.1"/>
    <path id="Path_696" data-name="Path 696" d="M545.56,400.33s55.4-7.59,56.92,3.79,50.48,30,50.48,30l-12.15-30-22.39-37.19s-41-3-42.88,0S552,379.83,552,379.83Z" transform="translate(-213.789 -69.27)" fill="#965d7b"/>
    <path id="Path_697" data-name="Path 697" d="M642,481.42a27,27,0,0,1,5.56,11.13c.92,3.92,1,8,1.83,11.92,1.86,8.35,7.39,15.37,13.15,21.69a23.671,23.671,0,0,0,6.73,5.66c2.64,1.3,6,1.57,8.44,0-2.32-1.91-3.58-4.82-4.41-7.7a39.453,39.453,0,0,1-1.54-12.41c.25-7,2.3-14.39-.61-20.77-1.68-3.69-4.81-6.49-8-9a43.088,43.088,0,0,0-7.14-4.69c-4.72-2.35-10.12-3.38-15.33-3.9C633.9,472.66,639.83,478.86,642,481.42Z" transform="translate(-217.827 -82.337)" opacity="0.1"/>
    <path id="Path_698" data-name="Path 698" d="M642,480.29a26.849,26.849,0,0,1,5.56,11.12c.92,3.92,1,8,1.83,11.92,1.86,8.35,7.39,15.37,13.15,21.69a23.671,23.671,0,0,0,6.73,5.66c2.64,1.3,6,1.57,8.44,0-2.32-1.91-3.58-4.81-4.41-7.7a39.453,39.453,0,0,1-1.54-12.41c.25-7,2.3-14.39-.61-20.77-1.68-3.68-4.81-6.48-8-9a42.523,42.523,0,0,0-7.14-4.7c-4.72-2.35-10.12-3.38-15.33-3.9C633.9,471.52,639.83,477.72,642,480.29Z" transform="translate(-217.827 -82.221)" fill="#965d7b"/>
  </g>
</svg>
